<svg width="15" height="8" viewBox="0 0 15 8" fill="none" xmlns="http://www.w3.org/2000/svg">
<path d="M0.514097 1.45842C0.51364 1.22477 0.595016 0.998336 0.744097 0.818424C0.828046 0.717166 0.931148 0.633464 1.04749 0.572112C1.16384 0.51076 1.29115 0.472964 1.42212 0.460888C1.5531 0.448812 1.68517 0.462694 1.81078 0.501739C1.93638 0.540783 2.05305 0.604222 2.1541 0.688424L7.5141 5.16842L12.8841 0.848425C12.9864 0.765359 13.1041 0.703328 13.2304 0.665896C13.3568 0.628464 13.4893 0.61637 13.6203 0.63031C13.7513 0.644249 13.8783 0.683946 13.9939 0.747119C14.1096 0.810293 14.2116 0.895698 14.2941 0.998425C14.3851 1.10189 14.4538 1.22306 14.4958 1.35432C14.5378 1.48558 14.5522 1.62411 14.5381 1.7612C14.524 1.89829 14.4817 2.03099 14.4139 2.15098C14.3461 2.27096 14.2543 2.37563 14.1441 2.45843L8.1441 7.28842C7.96516 7.43551 7.74072 7.51591 7.5091 7.51591C7.27747 7.51591 7.05303 7.43551 6.8741 7.28842L0.874098 2.28842C0.75308 2.18811 0.657416 2.06067 0.594868 1.91646C0.532319 1.77225 0.504646 1.61533 0.514097 1.45842Z" fill="#BDC1C7"/>
</svg>
