<svg width="10" height="10" viewBox="0 0 10 10" fill="none" xmlns="http://www.w3.org/2000/svg">
<path d="M5.93996 5.00004L8.80662 2.14004C8.93216 2.01451 9.00269 1.84424 9.00269 1.66671C9.00269 1.48917 8.93216 1.31891 8.80662 1.19338C8.68109 1.06784 8.51083 0.997314 8.33329 0.997314C8.15576 0.997314 7.9855 1.06784 7.85996 1.19338L4.99996 4.06004L2.13996 1.19338C2.01442 1.06784 1.84416 0.997314 1.66663 0.997314C1.48909 0.997314 1.31883 1.06784 1.19329 1.19338C1.06776 1.31891 0.997231 1.48917 0.997231 1.66671C0.997231 1.84424 1.06776 2.01451 1.19329 2.14004L4.05996 5.00004L1.19329 7.86004C1.13081 7.92202 1.08121 7.99575 1.04737 8.07699C1.01352 8.15823 0.996094 8.24537 0.996094 8.33337C0.996094 8.42138 1.01352 8.50852 1.04737 8.58976C1.08121 8.671 1.13081 8.74473 1.19329 8.80671C1.25527 8.86919 1.329 8.91879 1.41024 8.95264C1.49148 8.98648 1.57862 9.00391 1.66663 9.00391C1.75463 9.00391 1.84177 8.98648 1.92301 8.95264C2.00425 8.91879 2.07798 8.86919 2.13996 8.80671L4.99996 5.94004L7.85996 8.80671C7.92193 8.86919 7.99567 8.91879 8.07691 8.95264C8.15815 8.98648 8.24528 9.00391 8.33329 9.00391C8.4213 9.00391 8.50844 8.98648 8.58968 8.95264C8.67092 8.91879 8.74465 8.86919 8.80662 8.80671C8.86911 8.74473 8.91871 8.671 8.95255 8.58976C8.9864 8.50852 9.00382 8.42138 9.00382 8.33337C9.00382 8.24537 8.9864 8.15823 8.95255 8.07699C8.91871 7.99575 8.86911 7.92202 8.80662 7.86004L5.93996 5.00004Z" fill="white"/>
</svg>
