<svg width="36" height="36" viewBox="0 0 36 36" fill="none" xmlns="http://www.w3.org/2000/svg">
<g clip-path="url(#clip0_303_3742)">
<rect x="12" y="6" width="19.5" height="30" fill="white"/>
<path d="M31.1486 0H4.85107C2.17195 0 0 2.17186 0 4.85107V31.1488C0 33.828 2.17186 35.9998 4.85107 35.9998H17.8209L17.843 23.1354H14.5008C14.0665 23.1354 13.714 22.7842 13.7123 22.3499L13.6963 18.2032C13.6946 17.7665 14.0482 17.4115 14.4849 17.4115H17.821V13.4048C17.821 8.75492 20.6608 6.22304 24.8088 6.22304H28.2125C28.648 6.22304 29.0011 6.57609 29.0011 7.01166V10.5082C29.0011 10.9436 28.6482 11.2966 28.2129 11.2968L26.1241 11.2978C23.8683 11.2978 23.4315 12.3697 23.4315 13.9428V17.4116H28.3883C28.8606 17.4116 29.227 17.824 29.1713 18.2931L28.6798 22.4398C28.6328 22.8366 28.2963 23.1356 27.8968 23.1356H23.4536L23.4315 36H31.1488C33.8279 36 35.9997 33.8281 35.9997 31.149V4.85107C35.9996 2.17186 33.8278 0 31.1486 0Z" fill="#397DF6"/>
</g>
<defs>
<clipPath id="clip0_303_3742">
<rect width="36" height="36" fill="white"/>
</clipPath>
</defs>
</svg>
