<svg width="36" height="36" viewBox="0 0 36 36" fill="none" xmlns="http://www.w3.org/2000/svg">
<g clip-path="url(#clip0_303_3741)">
<path d="M7.89918 14.6468C9.29806 10.4079 13.2816 7.36364 17.9999 7.36364C20.5362 7.36364 22.8272 8.26364 24.6272 9.73636L29.8635 4.5C26.6726 1.71818 22.5817 0 17.9999 0C10.905 0 4.7965 4.04745 1.85986 9.97504L7.89918 14.6468Z" fill="#EA4335"/>
<path d="M24.0609 27.0189C22.4261 28.0744 20.3489 28.6363 17.9998 28.6363C13.2995 28.6363 9.32844 25.6153 7.91524 21.4018L1.85596 26.0025C4.78895 31.9404 10.8973 36 17.9998 36C22.399 36 26.6028 34.4361 29.7511 31.4994L24.0609 27.0189Z" fill="#34A853"/>
<path d="M29.7513 31.4994C33.0438 28.4282 35.1818 23.8555 35.1818 18C35.1818 16.9364 35.0182 15.7909 34.7727 14.7273H18V21.6818H27.6545C27.1782 24.0205 25.8995 25.8318 24.0611 27.0189L29.7513 31.4994Z" fill="#4A90E2"/>
<path d="M7.91547 21.4018C7.55749 20.3345 7.36364 19.1906 7.36364 18C7.36364 16.8274 7.55165 15.7002 7.8993 14.6468L1.85999 9.97504C0.654881 12.3906 0 15.1131 0 18C0 20.8793 0.667171 23.5953 1.85619 26.0025L7.91547 21.4018Z" fill="#FBBC05"/>
</g>
<defs>
<clipPath id="clip0_303_3741">
<rect width="36" height="36" fill="white"/>
</clipPath>
</defs>
</svg>
