<svg width="20" height="12" viewBox="0 0 20 12" fill="none" xmlns="http://www.w3.org/2000/svg">
<path d="M19.0001 1C19.0095 0.93032 19.0095 0.85968 19.0001 0.79C18.9913 0.731289 18.9745 0.674074 18.9501 0.62C18.9236 0.571127 18.8935 0.524327 18.8601 0.48C18.822 0.416753 18.7748 0.359469 18.7201 0.31L18.6001 0.24C18.5423 0.196956 18.4782 0.163215 18.4101 0.14H18.2101C18.1491 0.080995 18.078 0.0335575 18.0001 0H13.0001C12.7348 0 12.4805 0.105357 12.2929 0.292893C12.1054 0.48043 12.0001 0.734784 12.0001 1C12.0001 1.26522 12.1054 1.51957 12.2929 1.70711C12.4805 1.89464 12.7348 2 13.0001 2H15.8301L11.8301 6.71L7.51005 4.14C7.30543 4.0183 7.06411 3.97359 6.82948 4.01392C6.59484 4.05425 6.38229 4.17696 6.23005 4.36L1.23005 10.36C1.14585 10.461 1.08241 10.5777 1.04336 10.7033C1.00432 10.8289 0.990439 10.961 1.00251 11.092C1.01459 11.2229 1.05239 11.3503 1.11374 11.4666C1.17509 11.5829 1.25879 11.6861 1.36005 11.77C1.53996 11.9191 1.7664 12.0005 2.00005 12C2.14696 12.0002 2.29212 11.9681 2.4252 11.9059C2.55829 11.8437 2.67603 11.7529 2.77005 11.64L7.22005 6.3L11.4901 8.86C11.6926 8.98013 11.931 9.02493 12.1633 8.98651C12.3957 8.9481 12.607 8.82893 12.7601 8.65L17.0001 3.7V6C17.0001 6.26522 17.1054 6.51957 17.2929 6.70711C17.4805 6.89464 17.7348 7 18.0001 7C18.2653 7 18.5196 6.89464 18.7072 6.70711C18.8947 6.51957 19.0001 6.26522 19.0001 6V1Z" fill="white"/>
</svg>
